<svg t="1635235364028" class="icon" viewBox="0 0 1260 1024" version="1.1" xmlns="http://www.w3.org/2000/svg" p-id="25184" width="200" height="200"><path d="M315.076923 620.228923v-146.510769c0.157538-24.418462 8.507077-35.603692 26.702769-35.682462 13.154462 0 26.387692-0.157538 39.542154 0 15.911385 0.236308 24.891077 12.130462 24.891077 33.555693 0.157538 59.076923 0.078769 178.333538 0 237.410461 0 21.819077-9.137231 33.870769-25.363692 34.028308-13.627077 0.078769-27.254154 0.157538-40.881231 0-15.517538-0.157538-24.654769-12.051692-24.812308-32.846769-0.157538-29.932308 0-59.943385 0-89.954462zM627.948308 585.097846V303.655385c0-24.654769 8.664615-36.233846 27.017846-36.233847 13.233231-0.078769 26.466462-0.157538 39.620923 0 15.517538 0.236308 24.891077 12.051692 24.969846 32.84677 0.157538 90.348308 0.157538 330.515692 0 420.942769 0 21.031385-9.609846 33.161846-25.363692 33.319385-12.760615 0.157538-25.521231 0-38.281846 0-19.219692 0-27.963077-11.500308-27.963077-37.021539V585.176615zM1032.428308 538.624v192.196923c0 26.702769-8.113231 37.572923-27.963077 37.572923h-38.203077c-15.517538-0.236308-24.891077-12.288-24.891077-32.846769-0.157538-131.387077-0.157538-474.663385 0-606.129231 0-20.322462 8.900923-32.137846 24.418461-32.531692 13.784615-0.315077 27.569231-0.236308 41.432616 0 16.541538 0.236308 25.127385 11.815385 25.206154 34.028308v407.709538z" p-id="25185" fill="#409EFF"></path><path d="M118.153846 907.736615V78.769231a39.384615 39.384615 0 0 0-78.769231 0v907.736615h1177.442462a39.384615 39.384615 0 1 0 0-78.769231H118.153846z" p-id="25186" fill="#409EFF"></path></svg>