<svg t="1635230387247" class="icon" viewBox="0 0 1024 1024" version="1.1" xmlns="http://www.w3.org/2000/svg" p-id="7282" width="200" height="200"><path d="M399.311986 861.458043 284.339442 861.458043c-14.470573 0-26.203802-11.733229-26.203802-26.202779 0-14.471596 11.733229-26.203802 26.203802-26.203802l114.972545 0c14.471596 0 26.203802 11.733229 26.203802 26.203802C425.515788 849.724815 413.783583 861.458043 399.311986 861.458043z" p-id="7283"  fill="#409EFF"></path><path d="M344.896656 753.061264c-153.254429 0-277.93815-124.670417-277.93815-277.912567L66.958506 142.629441c0-14.471596 11.733229-26.203802 26.203802-26.203802s26.202779 11.733229 26.202779 26.203802l0 332.520279c0 124.337843 101.168144 225.505987 225.53157 225.505987 124.338866 0 225.50701-101.167121 225.50701-225.505987l0-59.07342c0-60.199057 48.810682-109.164259 108.818381-109.164259 60.213383 0 109.202121 48.966225 109.202121 109.164259l0 156.363234c0 14.470573-11.731182 26.202779-26.202779 26.202779-14.471596 0-26.201755-11.733229-26.201755-26.202779L736.019635 416.0763c0-31.295773-25.475208-56.757678-56.796564-56.757678-31.103392 0-56.412824 25.461905-56.412824 56.757678l0 59.07342C622.8082 628.390847 498.138806 753.061264 344.896656 753.061264z" p-id="7284"  fill="#409EFF"></path><path d="M930.955372 598.642313c-14.470573 0-26.202779-11.733229-26.202779-26.202779L904.752594 416.0763c0-124.351146-101.166097-225.518267-225.53157-225.518267-124.158764 0-225.173412 101.167121-225.173412 225.518267l0 59.07342c0 60.199057-48.965202 109.175515-109.151979 109.175515-60.198034 0-109.163235-48.976458-109.163235-109.175515L235.732397 142.629441c0-14.471596 11.732206-26.203802 26.202779-26.203802s26.203802 11.733229 26.203802 26.203802l0 332.520279c0 31.308053 25.461905 56.768935 56.756655 56.768935 31.283494 0 56.745399-25.460882 56.745399-56.768935l0-59.07342c0-153.254429 124.516922-277.926894 277.579993-277.926894 153.255453 0 277.937127 124.672464 277.937127 277.926894l0 156.363234C957.158151 586.909084 945.426969 598.642313 930.955372 598.642313z" p-id="7285" fill="#409EFF"></path></svg>