<svg t="1635235739578" class="icon" viewBox="0 0 1024 1024" version="1.1" xmlns="http://www.w3.org/2000/svg" p-id="28660" width="200" height="200"><path d="M512 109.184c-63.530667 0-124.330667 12.416-182.314667 37.162667C271.786667 171.093333 221.781333 204.416 179.84 246.314667 137.941333 288.213333 104.618667 338.218667 79.872 396.16 55.082667 454.186667 42.666667 514.944 42.666667 578.517333c0 64.981333 12.586667 126.421333 37.717333 184.405333 25.130667 57.941333 60.032 108.586667 104.789333 151.936l653.653333 0c44.757333-43.349333 79.658667-94.037333 104.789333-151.936C968.789333 704.896 981.333333 643.498667 981.333333 578.517333c0-63.530667-12.416-124.330667-37.162667-182.357333-24.746667-57.898667-58.026667-107.904-100.010667-149.845333-41.856-41.898667-91.818667-75.221333-149.888-99.968C636.373333 121.6 575.573333 109.184 512 109.184L512 109.184zM810.624 847.786667 213.418667 847.786667c-69.162667-76.202667-103.765333-165.930667-103.765333-269.312 0-72.618667 18.048-139.818667 53.973333-201.685333 35.968-61.824 84.864-110.72 146.688-146.688C372.138667 194.218667 439.381333 176.213333 512 176.213333s139.861333 18.005333 201.685333 53.888c61.781333 36.010667 110.72 84.864 146.688 146.688s53.973333 129.066667 53.973333 201.685333C914.304 681.856 879.701333 771.584 810.624 847.786667L810.624 847.786667 810.624 847.786667zM229.162667 559.658667 144.341333 544l8.405333-47.146667 84.821333 15.701333L229.162667 559.658667zM786.517333 512.512l84.821333-15.744 8.362667 47.104-84.864 15.786667L786.517333 512.512zM310.912 377.386667 255.36 311.338667l36.693333-30.336 55.424 66.005333L310.912 377.386667zM713.173333 377.386667l-36.693333-30.378667 55.552-66.005333 36.650667 30.336L713.173333 377.386667zM487.978667 209.706667l48.170667 0 0 85.930667-48.170667 0L487.978667 209.706667zM514.090667 580.608 369.536 419.285333l80.64 196.992c-13.952 25.130667-13.525333 49.92 1.109333 74.368 10.410667 16.768 25.429333 27.434667 45.013333 31.957333 19.498667 4.48 37.674667 1.365333 54.442667-9.429333 16.725333-10.837333 27.392-25.856 31.957333-45.098667 4.565333-19.242667 1.578667-37.205333-8.874667-53.973333C559.829333 592.512 539.946667 581.333333 514.090667 580.608L514.090667 580.608z" p-id="28661" fill="#409EFF"></path></svg>