<svg t="1635321025429" class="icon" viewBox="0 0 1058 1024" version="1.1" xmlns="http://www.w3.org/2000/svg" p-id="4308" width="200" height="200"><path d="M1006.644098 1024H28.124173c-15.348524 0-27.835376-12.486852-27.835376-27.835376V27.836353c0-15.348524 12.486852-27.835376 27.835376-27.835376H1006.644098c15.348524 0 27.835376 12.486852 27.835376 27.835376v968.329248c0 15.347547-12.486852 27.834399-27.835376 27.834399z m-962.404708-43.950594H990.528881V43.95157H44.23939v936.097836z" p-id="4309" fill="#409EFF"></path><path d="M22.264093 201.673648H1012.504177v43.950593H22.264093zM22.264093 303.24347H1012.504177v43.950594H22.264093zM22.264093 842.344383h980.049407v43.950593H22.264093z" p-id="4310" fill="#409EFF"></path><path d="M207.821547 325.218767h43.950594v539.101889h-43.950594zM776.223832 325.218767h43.950594v539.101889h-43.950594z" p-id="4311" fill="#409EFF"></path><path d="M35.448295 338.404922h194.348549v517.126592H35.448295z" p-id="4312" fill="#409EFF"></path></svg>