<svg t="1635230592955" class="icon" viewBox="0 0 1024 1024" version="1.1" xmlns="http://www.w3.org/2000/svg" p-id="8140" width="200" height="200"><path d="M742.72 752.064c-29.696 28.576-42.976 48.96-42.976 77.12 0 98.4 143.776 142.464 229.728 65.536l-21.344-23.84c-66.976 59.936-176.384 26.4-176.384-41.696 0-16.832 9.28-31.104 33.184-54.08l13.44-12.736c61.024-58.016 75.328-102.72 29.312-179.84-43.84-73.44-96.8-88.288-162.784-50.56-47.232 27.04-68.64 47.456-208.32 190.4-70.624 72.288-153.92 77.088-217.344 26.784-59.712-47.328-79.872-127.36-42.176-188.64 24.512-39.84 62.656-72.896 136.64-124.48 5.952-4.192 27.04-18.816 31.104-21.664 12.16-8.448 21.536-15.104 30.4-21.536 107.552-78.272 140.8-139.136 86.048-219.904-76.992-113.472-202.304-90.016-367.744 61.472l21.6 23.616c153.088-140.224 256.896-159.616 319.68-67.104 41.632 61.408 16.896 106.688-78.4 176.032-8.64 6.304-17.92 12.832-29.888 21.184l-31.136 21.632c-77.504 54.08-117.984 89.184-145.536 133.984-46.784 76.032-22.176 173.664 49.536 230.496 76.224 60.416 177.952 54.56 260.096-29.504 136.16-139.36 158.08-160.224 201.312-184.96 50.656-28.96 84.416-19.52 119.424 39.168 36.896 61.824 27.52 91.392-23.808 140.16 0.096-0.064-10.976 10.368-13.632 12.96z" p-id="8141" fill="#409EFF"></path></svg>