<svg t="1635235311394" class="icon" viewBox="0 0 1024 1024" version="1.1" xmlns="http://www.w3.org/2000/svg" p-id="24648" width="200" height="200"><path d="M140.8 957.952H66.56V103.936c0-19.968 16.384-36.864 36.864-36.864h1.024c19.968 0 36.864 16.384 36.864 36.864v854.016z" p-id="24649" fill="#409EFF"></path><path d="M66.56 957.952v-74.24h854.016c19.968 0 36.864 16.384 36.864 36.864v1.024c0 19.968-16.384 36.864-36.864 36.864H66.56zM135.68 749.056l-67.072-31.744 165.888-351.744c6.144-12.8 18.432-22.016 32.768-23.552 14.336-1.536 28.16 4.096 37.376 15.36l212.48 269.312 373.76-435.712 56.32 48.128-399.872 465.92c-8.192 9.216-19.968 14.848-32.256 14.336-12.288-0.512-24.064-6.144-31.744-15.872L279.04 445.952l-143.36 303.104z m406.016-90.112z" p-id="24650" fill="#409EFF"></path><path d="M919.04 216.064m-37.376 0a37.376 37.376 0 1 0 74.752 0 37.376 37.376 0 1 0-74.752 0Z" p-id="24651" fill="#409EFF"></path></svg>