<svg t="1635228627676" class="icon" viewBox="0 0 1024 1024" version="1.1" xmlns="http://www.w3.org/2000/svg" p-id="1893" width="200" height="200"><path d="M943.616 153.6H563.2c-28.16 0-51.2 16.384-51.2 36.864s23.04 36.864 51.2 36.864h296.96c28.16 0 51.2 7.168 51.2 15.872v160.256c0 28.16-8.192 47.616-18.432 43.52l-9.216-6.656a117.248 117.248 0 0 0-145.408 0 71.168 71.168 0 0 1-91.648 0 116.736 116.736 0 0 0-145.408 0A71.168 71.168 0 0 1 409.6 440.32a116.736 116.736 0 0 0-145.408 0 67.584 67.584 0 0 1-45.568 16.896 67.072 67.072 0 0 1-45.568-16.896l-12.8-9.216a72.192 72.192 0 0 1-40.96-65.536V153.6h-32.768c-17.92 0-32.256 23.04-32.256 51.2v614.4a51.2 51.2 0 0 0 51.2 51.2h819.2a51.2 51.2 0 0 0 51.2-51.2V204.8c0-28.16-14.848-51.2-32.256-51.2z" p-id="1894" fill="#409EFF"></path><path d="M299.52 277.504c16.384 0 29.696-8.192 29.696-36.864a78.336 78.336 0 0 0-29.696-51.2 78.336 78.336 0 0 0-29.696 51.2c0 28.16 13.312 36.864 29.696 36.864zM376.32 277.504c16.384 0 29.696-8.192 29.696-36.864a78.336 78.336 0 0 0-29.696-51.2 78.336 78.336 0 0 0-29.696 51.2c-0.512 28.16 11.776 36.864 29.696 36.864zM222.208 277.504c16.384 0 29.696-8.192 29.696-36.864a78.336 78.336 0 0 0-29.696-51.2 78.336 78.336 0 0 0-29.696 51.2c0 28.16 12.288 36.864 29.696 36.864z" p-id="1895" fill="#409EFF"></path></svg>