<svg t="1635234975490" class="icon" viewBox="0 0 1024 1024" version="1.1" xmlns="http://www.w3.org/2000/svg" p-id="21636" width="200" height="200"><path d="M882.401821 578.664065c-5.755837 8.039024-52.794276-15.793951-105.063024-53.23239-49.294569-35.309268-85.629919-70.105496-84.776586-80.695155a36.701659 36.701659 0 0 1-60.012227-6.491577c35.777561 5.349984 59.905041 4.066862 61.386927-4.88065 1.491252-9.008911-20.328065-23.697691-54.921366-38.795447a36.585106 36.585106 0 0 1 25.797723-10.601106c0.936585 0 1.85548 0.045789 2.772293 0.114471-8.445919-6.771512-10.654179-56.843447-4.773463-116.890016 6.267837-64.008325 19.356098-115.110504 29.225626-114.138536s12.793756 53.649691 6.525918 117.658016c-5.916098 60.406634-17.899187 109.294309-27.529366 113.792a36.721431 36.721431 0 0 1 23.736196 57.417886c10.268098-3.704715 54.550894 19.396683 103.413593 54.395837 52.268748 37.43948 89.974634 74.306602 84.217756 82.346667zM692.397789 432.838764c-3.330081 12.461789-71.658146 4.956618-152.605139-16.763837-73.147317-19.626667-131.565268-44.14439-139.685463-57.882016a47.869919 47.869919 0 1 1-58.20878-64.171708c-13.145496-1.957463-39.48748-63.025951-60.309854-140.735479C259.87122 72.233626 252.391024 3.813984 264.881951 0.467252s40.222179 59.645919 61.940553 140.695935c20.827577 77.730341 28.548163 143.803317 18.129171 152.039024a47.85639 47.85639 0 0 1 57.517788 57.673887c14.792846-7.404228 77.050797 0.651447 149.398895 20.063739 80.951154 21.726699 143.864715 49.437138 140.529431 61.898927z m-375.431285-60.51278c9.105691 9.107772-31.55148 64.545301-90.811317 123.822829s-114.679675 99.947187-123.784325 90.838374 31.55252-64.545301 90.811317-123.822829 114.679675-99.947187 123.784325-90.838374zM355.544455 629.593496a40.073366 40.073366 0 0 0-38.440585 28.776065l6.62374-230.515512A32.253919 32.253919 0 0 1 323.642276 425.626016a32.468293 32.468293 0 0 1 0.266407-4.085593l0.03226-1.117659h0.124878a32.260163 32.260163 0 0 1 63.673236 0h0.124878l0.03226 1.117659A32.468293 32.468293 0 0 1 388.162602 425.626016c0 0.749268-0.034341 1.491252-0.085334 2.228033l6.716358 233.720715A40.078569 40.078569 0 0 0 355.544455 629.593496z m46.133073 292.422764a46.30374 46.30374 0 1 1-91.906081-8.494829l6.60813-229.975415c-0.006244-0.293463-0.021854-0.584846-0.021853-0.879349 0-1.073951 0.055154-2.134374 0.139447-3.187513l0.021853-0.770081c0.008325 0.037463 0.018732 0.073886 0.028098 0.110309a39.544715 39.544715 0 0 1 78.442146-2.188488c0.069724-0.401691 0.14361-0.803382 0.201886-1.209235l0.116553 4.058536a39.877724 39.877724 0 0 1 0.139447 3.187512c0 0.294504-0.01561 0.585886-0.021853 0.87935L402.277984 922.01626h-0.600456zM291.902439 981.333333h122.796748a11.96748 11.96748 0 0 1 11.96748 11.96748v18.731707a11.96748 11.96748 0 0 1-11.96748 11.96748h-122.796748a11.96748 11.96748 0 0 1-11.96748-11.96748v-18.731707a11.96748 11.96748 0 0 1 11.96748-11.96748z m125.222504-451.40813c-4.081431-8.99226 40.065041-37.782894 98.613073-64.305951 35.644358-16.148813 68.407154-27.732293 89.50426-32.294504a511.441171 511.441171 0 0 0 23.469789 4.325984c-5.654894 11.692748-46.257951 37.004488-98.193691 60.533593-58.54387 26.523057-109.310959 40.734179-113.393431 31.740878z m247.411512 113.098927a30.753301 30.753301 0 0 0-29.492032 22.038894l5.082536-176.865821a25.082797 25.082797 0 0 1-0.062439-1.66504 24.894439 24.894439 0 0 1 0.198765-3.082407l0.024975-0.884553h0.097821a24.746667 24.746667 0 0 1 48.854374 0h0.086374l0.022895 0.806504a24.941268 24.941268 0 0 1 0.20813 3.160456c0 0.583805-0.027057 1.160325-0.067643 1.733723l5.150179 179.222894a30.753301 30.753301 0 0 0-30.103935-24.46465zM700.344195 867.382114c0 0.173789 0.013528 0.345496 0.013529 0.520325a35.382114 35.382114 0 0 1-70.764228 0c0-0.174829 0.010407-0.346537 0.013528-0.520325h-0.376715l5.141854-178.917984a31.225756 31.225756 0 0 1-0.085334-2.171837 30.844878 30.844878 0 0 1 0.261204-3.945106l0.045788-1.615089c0.035382 0.151935 0.087415 0.296585 0.124878 0.447479a30.748098 30.748098 0 0 1 60.133984-2.407024c0.029138-0.173789 0.074927-0.341333 0.104065-0.520325l0.030179 1.085398a30.551415 30.551415 0 0 1 0.349658 12.164163l5.051317 175.880325h-0.043707z m-82.637008 47.902179h90.211902a11.171382 11.171382 0 0 1 0 22.341723h-90.211902a11.171382 11.171382 0 0 1 0-22.341723z" p-id="21637" fill="#409EFF"></path></svg>